<?xml version="1.0" encoding="utf-8"?>
<!-- Generator: Adobe Adobe Illustrator 28.1.0, SVG Export Plug-In . SVG Version: 6.00 Build 0)  -->
<svg version="1.1" id="Layer_1" xmlns="http://www.w3.org/2000/svg" xmlns:xlink="http://www.w3.org/1999/xlink" x="0px" y="0px"
	 viewBox="0 0 496 115" style="enable-background:new 0 0 496 115;" xml:space="preserve">
<style type="text/css">
	.st0{fill:#878482;}
	.st1{fill:#F7DF33;}
	.st2{fill-rule:evenodd;clip-rule:evenodd;fill:#250506;}
	.st3{fill-rule:evenodd;clip-rule:evenodd;fill:#6B1512;}
</style>
<g>
	<g id="Logo_1">
		<path class="st0" d="M465.91,19.31c0.06-0.89,0.35-1.84,0.9-2.86C466.76,17.33,466.45,18.29,465.91,19.31z"/>
		<path class="st0" d="M30.71,48.9c0.15-1.52,0.47-3.23,0.95-5.12C31.5,45.31,31.19,47.01,30.71,48.9z"/>
		<path class="st0" d="M29.9,54.13c-0.08-0.8,0.04-1.75,0.32-2.86C30.29,52.07,30.19,53.02,29.9,54.13z"/>
		<path class="st0" d="M29.24,56.84c-0.08-0.65,0-1.48,0.29-2.46C29.62,55.03,29.51,55.85,29.24,56.84z"/>
		<path class="st0" d="M32.76,38.4c-0.07-0.52,0.04-1.26,0.37-2.17C33.21,36.76,33.08,37.48,32.76,38.4z"/>
		<path class="st1" d="M469.17,42.9c-0.2-0.09-0.37-0.34-0.5-0.73C468.87,42.27,469.03,42.51,469.17,42.9z"/>
		<path class="st1" d="M466.24,25.57c-0.22-0.12-0.4-0.42-0.55-0.91C465.91,24.79,466.1,25.09,466.24,25.57z"/>
		<path class="st0" d="M39.76-0.81c0.1,0.68,0,1.51-0.3,2.51C39.36,1.03,39.46,0.19,39.76-0.81z"/>
		<path class="st0" d="M35.46,22.35c0.08,0.69-0.06,1.55-0.38,2.59C35.02,24.25,35.13,23.38,35.46,22.35z"/>
	</g>
	<g id="Logo_2">
		<g>
			<path class="st2" d="M369.01,106.66l-0.45-0.04l-0.45-0.04l-0.45-0.04l-0.45-0.04l-0.45-0.04l-0.45-0.04l-0.45-0.04l-0.45-0.04
				l-0.45-0.04l-0.45-0.04l-0.45-0.04l-0.45-0.04l-0.45-0.04l-0.45-0.04l-0.45-0.04l-0.45-0.04l-0.91-0.07l-0.45-0.04l-0.45-0.04
				l-0.45-0.04l-0.45-0.04l-0.45-0.04l-0.45-0.04l-0.45-0.04l-0.45-0.04l-0.45-0.04l-0.45-0.04l-0.45-0.04l-0.45-0.04l-0.45-0.04
				l-0.45-0.04l-5.06-0.39v-3.22l-5.82,2.73l-5.82-0.36l-0.37-0.02l-0.37-0.02l-0.37-0.02l-0.37-0.02l-0.37-0.02l-0.37-0.02
				l-0.37-0.02l-0.37-0.02l-0.37-0.02l-0.37-0.02l-0.37-0.02l-0.37-0.02l-0.37-0.02l-0.37-0.02l-0.37-0.02l-0.37-0.02l-0.37-0.02
				l-0.37-0.02l-0.37-0.02l-0.37-0.02l-0.37-0.02l-0.37-0.02l-0.37-0.02l-0.37-0.02l-0.37-0.02l-0.37-0.02l-0.37-0.02l-0.37-0.02
				l-0.37-0.02l-0.37-0.02l-0.37-0.02l-0.37-0.02l-4.63-0.28l-0.44-0.02l-0.44-0.02l-0.44-0.02l-0.44-0.02l-0.44-0.02l-0.44-0.02
				l-0.44-0.02l-0.44-0.02l-0.44-0.02l-0.44-0.02l-0.44-0.02l-0.44-0.02l-0.44-0.02l-0.44-0.02l-0.44-0.02l-0.44-0.02l-0.44-0.02
				l-0.44-0.02l-0.44-0.02l-0.44-0.02l-0.44-0.02l-0.44-0.02l-0.44-0.02l-0.44-0.02l-0.44-0.02l-0.44-0.02l-0.44-0.02l-0.44-0.02
				l-0.44-0.02l-0.44-0.02l-0.44-0.02l-0.44-0.02l-4.6-0.2l-0.08-0.59l-0.59,0.5l-5.67-0.18l-0.49-0.02l-0.98-0.03l-0.49-0.02
				l-0.49-0.02l-0.49-0.01l-0.49-0.02l-0.49-0.01l-0.49-0.01l-0.49-0.01l-0.49-0.01l-0.49-0.01l-0.49-0.01l-0.49-0.01l-0.49-0.01
				l-0.49-0.01l-0.49-0.01l-0.49-0.01l-0.49-0.01l-0.49-0.01l-0.49-0.01l-0.49-0.01l-0.49-0.01l-0.49-0.01l-0.49-0.01l-0.49-0.01
				l-0.49-0.01l-0.49-0.01l-0.49-0.01l-0.49-0.01l-0.49-0.01l-0.49-0.01l-5.35-0.14V99.8l-0.4,0.15l-0.4,0.14l-0.4,0.14l-0.4,0.13
				l-0.4,0.13l-0.4,0.12l-0.4,0.11l-0.4,0.11l-0.4,0.1l-0.4,0.09l-0.4,0.09l-0.41,0.08l-0.41,0.08l-0.41,0.07l-0.41,0.07l-0.41,0.06
				l-0.41,0.06l-0.41,0.05l-0.41,0.05l-0.42,0.04l-0.42,0.04l-0.42,0.04l-0.42,0.03l-0.42,0.03l-0.43,0.02l-0.43,0.02l-0.43,0.01
				l-0.43,0.01l-0.44,0.01H263h-0.44h-0.45l-0.63-0.01l-0.63-0.02l-0.63-0.03l-0.63-0.03l-0.63-0.04l-0.63-0.05l-0.64-0.06
				l-0.63-0.07l-0.63-0.08l-0.63-0.09l-0.63-0.1l-0.63-0.11l-0.63-0.12l-0.62-0.14l-0.62-0.15l-0.62-0.16l-0.61-0.17l-0.61-0.18
				l-0.61-0.2l-0.6-0.21l-0.59-0.22l-0.59-0.23l-0.58-0.25l-0.58-0.26l-0.57-0.28l-0.56-0.29l-0.56-0.3l-0.55-0.32l-0.54-0.33
				l-0.53-0.35l-0.52-0.37l-0.52-0.38l-0.32-0.25l-0.31-0.25l-0.31-0.26l-0.3-0.26l-0.29-0.27l-0.29-0.27l-0.28-0.27l-0.28-0.28
				l-0.27-0.28l-0.27-0.29l-0.26-0.29l-0.25-0.3l-0.25-0.3l-0.24-0.3l-0.24-0.31l-0.23-0.31l-0.22-0.32l-0.22-0.32l-0.21-0.32
				l-0.21-0.33l-0.2-0.33l-0.19-0.34l-0.19-0.34l-0.18-0.34l-0.17-0.35l-0.17-0.35l-0.16-0.35l-0.16-0.36l-0.15-0.36l-0.14-0.36
				l-0.14-0.37l-0.13-0.37l-0.01,0.32l-0.01,0.32l-0.01,0.32l-0.01,0.32l-0.01,0.32l-0.01,0.32l-0.01,0.32l-0.01,0.32l-0.01,0.32
				l-0.01,0.32l-0.01,0.32l-0.01,0.32l-0.01,0.32l-0.01,0.32l-0.01,0.32l-0.01,0.32l-0.09,3.18l-2.81,1.5l-0.66,0.34l-0.67,0.33
				l-0.68,0.32l-0.69,0.31l-0.7,0.3l-0.71,0.29l-0.72,0.28l-0.72,0.27l-0.73,0.26l-0.74,0.25l-0.74,0.24l-0.75,0.23l-0.75,0.22
				l-0.76,0.21l-0.76,0.2l-0.76,0.19l-0.77,0.18l-0.77,0.17l-0.77,0.16l-0.77,0.15l-0.77,0.14l-0.77,0.13l-0.77,0.12l-0.77,0.11
				l-0.77,0.1l-0.76,0.09l-0.76,0.08l-0.76,0.07l-0.75,0.06l-0.75,0.05l-0.75,0.04L208.9,102l-0.9,0.02l-0.9,0.01h-0.91l-0.91-0.01
				l-0.92-0.02l-0.92-0.03l-0.92-0.05l-0.93-0.06l-0.93-0.07l-0.93-0.09l-0.93-0.1l-0.93-0.11l-0.92-0.13l-0.92-0.15l-0.92-0.16
				l-0.91-0.18l-0.91-0.2l-0.9-0.22l-0.9-0.23l-0.89-0.25l-0.88-0.27l-0.88-0.29l-0.87-0.31l-0.86-0.33l-0.85-0.36l-0.84-0.38
				l-0.82-0.4l-0.81-0.42l-0.8-0.45l-0.78-0.47l-0.77-0.5l-0.75-0.52l-0.61-0.45l-0.6-0.47l-0.58-0.48l-16.65-14.21l0.04,0.03
				c-0.18-0.15-0.35-0.3-0.52-0.45l-0.2,0.08l-0.56,0.2l-0.57,0.19l-0.57,0.18l-0.58,0.17l-0.58,0.16l-0.59,0.15l-0.59,0.15
				l-0.59,0.14l-0.59,0.13l-0.6,0.12l-0.6,0.12l-0.6,0.11l-0.6,0.1l-0.6,0.09l-0.6,0.09l-0.6,0.08l-0.6,0.07l-0.6,0.07l-0.6,0.06
				l-0.6,0.06l-0.6,0.05l-0.6,0.05l-0.6,0.04l-0.6,0.04l-0.59,0.03l-0.06,0.48l-0.06,0.48l-0.06,0.48l-0.06,0.48l-0.06,0.48
				l-0.06,0.48l-0.06,0.48l-0.06,0.48l-0.06,0.48l-0.06,0.48l-0.06,0.48l-0.06,0.48l-0.06,0.48l-0.06,0.48l-0.06,0.48l-0.06,0.48
				l-0.03,0.24l-0.01,0.07l4.49,2.73l-1.6,6.34l-0.02,0.13l-0.01,0.13l-0.01,0.13l-0.01,0.13l-0.01,0.13l-0.02,0.13l-0.02,0.13
				l-0.02,0.13l-0.72,4.22l-4.27,0.33l-0.69,0.05l-0.69,0.05l-0.69,0.05l-0.69,0.05l-0.69,0.05l-0.69,0.05l-0.69,0.05l-0.69,0.05
				l-0.69,0.05l-0.69,0.05l-0.69,0.05l-0.69,0.05l-0.69,0.05l-0.69,0.06l-0.69,0.06l-0.69,0.06l-0.69,0.06l-0.69,0.06l-0.69,0.06
				l-0.69,0.06l-0.69,0.06l-0.69,0.06l-0.69,0.06l-0.69,0.06l-0.69,0.06l-0.69,0.06l-0.69,0.06l-0.69,0.06l-0.69,0.06l-0.69,0.06
				l-0.69,0.06l-0.69,0.06l-0.1,0.01l-0.1,0.01l-0.1,0.01l-0.1,0.01l-0.1,0.01l-0.2,0.02l-0.1,0.01l-0.34,0.03l-0.34,0.03
				l-0.34,0.03l-0.34,0.03l-0.34,0.03l-0.34,0.03l-0.34,0.03l-0.34,0.03l-0.58-0.01l-0.34,0.03l-0.34,0.03l-0.34,0.03l-0.34,0.03
				l-0.34,0.03l-0.34,0.03l-0.34,0.03l-0.34,0.03l-0.34,0.03l-0.34,0.03l-0.34,0.03l-0.34,0.03l-0.34,0.03l-0.34,0.03l-0.34,0.03
				l-0.34,0.03l-0.34,0.03l-0.34,0.03l-0.34,0.03l-0.34,0.03l-0.34,0.03l-0.34,0.03l-0.34,0.03l-0.35,0.03l-0.35,0.03l-0.35,0.03
				l-0.35,0.03l-0.35,0.03l-0.35,0.02l-0.35,0.02l-0.35,0.02l-0.34,0.01l-0.35,0.01h-0.35h-0.34h-0.34l-0.34-0.01l-0.34-0.01
				L104,107.6l-0.34-0.03l-0.34-0.03l-0.34-0.04l-0.34-0.04l-0.34-0.05l-0.34-0.06l-0.34-0.06l-0.34-0.07l-0.34-0.08l-0.33-0.09
				l-0.33-0.09l-14.09-4.23L85.54,105l-0.05,0.2l-0.05,0.2l-0.05,0.2l-0.04,0.2l-0.04,0.2l-0.05,0.2l-0.05,0.2l-0.06,0.2l-1,3.46
				l-3.57,0.46l-0.73,0.09l-0.73,0.09l-0.73,0.09l-0.73,0.09l-0.73,0.09l-0.73,0.09l-0.73,0.09l-0.73,0.09l-0.73,0.09l-0.73,0.09
				l-0.73,0.09l-0.73,0.09l-0.73,0.09l-0.73,0.09l-0.73,0.09l-0.73,0.09l-0.73,0.09l-0.73,0.09l-0.73,0.09l-0.73,0.09l-0.73,0.09
				l-0.73,0.09l-0.73,0.09l-0.73,0.09l-0.73,0.09l-0.73,0.09l-0.77,0.26l-0.73,0.09l-0.73,0.09l-0.73,0.09l-0.73,0.09l-0.73,0.09
				l-8.09,1.03l-49.08-9l2.62-9.85c0.23-0.86,0.35-1.67,0.64-2.54l1.15-3.51l3.56-0.97c0.12-0.03,0.32-0.09,0.44-0.15
				c1.2-1.2,2.71-8.07,3.05-9.63c1.93-9.13,3.61-18.3,5.42-27.45c1.82-9.23,3.59-18.46,5.56-27.66c0.24-1.12,0.83-3.8,1.15-6.04
				l-4.28-2.56l1.73-6.5c0.19-0.72,0.38-1.43,0.57-2.15l1.49-5.67l5.83,0.59c8.08,0.81,16.17,1.64,24.26,2.41
				c7.49,0.71,15.46,2.71,21.38,7.58l20.8,16.94l0.11-0.77c0.06-0.41,0.15-1.04,0.25-1.75l-4.77-3.97l1.57-6.93
				c0.14-0.63,0.24-1.27,0.38-1.9l1.3-5.76l5.89,0.43c8.17,0.6,16.35,1.15,24.53,1.64c8.34,0.5,17.46,2.55,24.37,7.46
				c2.47,1.75,4.53,3.79,6.13,6.07l4.4,6.23c1.07-1.33,2.22-2.6,3.45-3.81c8.67-8.52,20.45-13.26,32.51-13.97
				c2.3-0.14,4.61-0.22,6.92-0.15c7.6,0.23,15.08,2.13,22.35,4.23l5.16,1.49l2.87,24.77l6.05-0.01l0.08,1.32
				c0.17-0.18,0.34-0.37,0.51-0.55c6.05-6.33,14.62-9.81,23.25-10.58c1.71-0.15,3.43-0.23,5.14-0.22c4.85,0.03,9.18,0.7,13.82,1.83
				l0.27-0.88l6.82-0.04c6.33-0.04,12.66-0.07,19-0.1l6.35-0.04l0.01-0.01l6.8-0.06c6.27-0.06,12.55-0.1,18.82-0.19l6.95-0.09v6.91
				c0.02,0.71,0.04,1.33-0.06,2.04l-0.68,5.15l-2.02,2.1c0.06,1.01,0.12,2.03,0.17,3.04l19.32-19.43l4.7-0.07
				c1.88-0.03,3.76-0.06,5.63-0.08l4.21-0.06l1.96,3.72c0.89,1.7,1.79,3.39,2.69,5.09l11.3-9.06l6.74-0.12
				c5.99-0.11,11.99-0.21,17.98-0.32l6.72-0.14c3.27-0.07,6.54-0.14,9.81-0.2l2.82-0.05L440,32.6c1.33,1.27,2.65,2.53,3.98,3.8
				l10.65-6.12l7.34-0.17c4.15-0.09,8.31-0.19,12.46-0.28l5.87-0.13l1.04,5.77c0.1,0.53,0.19,1.07,0.29,1.6l1.24,6.91l-3.32,1.49
				c0.1,0.63,0.21,1.21,0.28,1.61c1.44,8.3,2.77,16.62,4.2,24.93c1.42,8.25,3.03,16.47,4.77,24.66l2.01,9.43l-49.08,8.9l-7.65-0.96
				l-0.18-0.02l-0.18-0.02l-0.18-0.02l-0.18-0.02l-0.18-0.02l-0.18-0.02l-0.18-0.02l-0.18-0.02l-0.18-0.02l-0.18-0.02l-0.18-0.02
				l-0.18-0.02l-0.18-0.02l-0.18-0.02l-0.18-0.02l-0.18-0.03l-1.83-0.25l-1.3-1.31l-0.54-0.54l-0.54-0.54l-0.54-0.54l-0.54-0.54
				l-0.54-0.54l-1.08-1.08l-0.17-0.17l-12.57,2.99l-6.12-0.71l-0.33-0.04l-0.33-0.04l-0.33-0.04l-0.33-0.04l-0.33-0.04l-0.33-0.04
				l-0.33-0.04l-0.33-0.04l-0.33-0.04l-0.33-0.04l-0.33-0.04l-0.33-0.04l-0.33-0.04l-0.33-0.04l-0.33-0.04l-0.33-0.04l-0.33-0.04
				l-0.33-0.04l-0.33-0.04l-0.33-0.04l-0.33-0.04l-0.33-0.04l-0.33-0.04l-0.33-0.04l-0.33-0.04l-0.33-0.04l-0.33-0.04l-0.33-0.04
				l-0.33-0.04l-0.33-0.04l-0.33-0.04l-0.33-0.04l-4.36-0.5v-0.01l-0.55-0.05l-0.5-0.05l-0.5-0.05l-0.5-0.05l-0.5-0.05l-0.5-0.05
				l-0.5-0.05l-0.5-0.05l-0.5-0.05l-0.5-0.05l-0.5-0.05l-0.5-0.05l-0.5-0.05l-0.5-0.05l-0.5-0.05l-0.5-0.05l-0.5-0.05l-0.5-0.05
				l-0.5-0.05l-0.5-0.05l-0.5-0.05l-0.5-0.05l-0.5-0.05l-0.5-0.05l-0.5-0.05l-0.5-0.05l-0.5-0.05l-0.5-0.05l-0.5-0.05l-0.5-0.05
				l-0.5-0.05l-0.5-0.05l-0.5-0.05L369.01,106.66L369.01,106.66L369.01,106.66z M345.36,74.07l2.3-1.76L345.36,74.07L345.36,74.07z
				 M346.53,74.68l-0.16,0.3C346.42,74.88,346.48,74.78,346.53,74.68z M346.2,75.28l-0.17,0.29
				C346.09,75.47,346.15,75.38,346.2,75.28z M346.04,75.57l-0.17,0.28C345.92,75.76,345.98,75.66,346.04,75.57z M345.87,75.85
				l-0.17,0.26C345.75,76.02,345.81,75.94,345.87,75.85z M345.7,76.11l-0.17,0.24C345.58,76.27,345.64,76.19,345.7,76.11z
				 M162.84,80.14l0.03,0.03l0.03,0.02L162.84,80.14z M120.34,77.78l0.04-0.5C120.37,77.45,120.36,77.62,120.34,77.78z
				 M120.38,77.28l0.05-0.5C120.41,76.95,120.4,77.12,120.38,77.28z M45.37,94.17l0.06-0.25C45.41,94,45.39,94.09,45.37,94.17z
				 M45.43,93.92l0.07-0.25C45.47,93.76,45.45,93.84,45.43,93.92z M95.36,28.58L76.35,13.12L95.36,28.58z M87.47,77.78l-0.35-0.31
				C87.23,77.58,87.35,77.68,87.47,77.78z M87.12,77.48l-0.35-0.32C86.88,77.27,87,77.37,87.12,77.48z M86.77,77.16l-0.35-0.33
				C86.54,76.94,86.65,77.05,86.77,77.16z M86.42,76.83l-0.34-0.34C86.19,76.6,86.31,76.72,86.42,76.83z M86.08,76.49l-0.34-0.35
				C85.85,76.25,85.97,76.37,86.08,76.49z M85.74,76.13l-0.34-0.36C85.52,75.89,85.63,76.02,85.74,76.13z M85.41,75.77l-0.33-0.37
				C85.18,75.52,85.29,75.65,85.41,75.77z M85.07,75.4l-0.33-0.38C84.85,75.15,84.96,75.27,85.07,75.4z M84.74,75.02l-0.32-0.39
				C84.53,74.76,84.64,74.89,84.74,75.02z M84.42,74.63l-0.32-0.4C84.21,74.36,84.31,74.49,84.42,74.63z M84.1,74.23l-0.32-0.41
				C83.89,73.96,83.99,74.09,84.1,74.23z M83.78,73.82l-0.31-0.41C83.57,73.55,83.68,73.69,83.78,73.82z M83.47,73.41l-0.31-0.42
				C83.26,73.13,83.37,73.27,83.47,73.41z M82.86,72.57l-0.3-0.43C82.66,72.29,82.76,72.43,82.86,72.57z M398.12,46.05l0.06,0.36
				C398.16,46.28,398.14,46.16,398.12,46.05z M270.78,50.72l0.29,0.14C270.97,50.81,270.87,50.76,270.78,50.72z M271.07,50.86
				l0.34,0.18C271.29,50.98,271.18,50.92,271.07,50.86z M271.41,51.05l0.37,0.21C271.66,51.18,271.53,51.11,271.41,51.05z
				 M271.78,51.26l0.37,0.23C272.03,51.41,271.9,51.33,271.78,51.26z M272.16,51.5l0.35,0.25C272.4,51.67,272.28,51.58,272.16,51.5z
				 M272.51,51.75l0.33,0.26C272.74,51.93,272.63,51.84,272.51,51.75z M272.84,52.02l0.27,0.27
				C273.03,52.2,272.94,52.11,272.84,52.02z M273.11,52.28l0.2,0.26C273.26,52.46,273.19,52.37,273.11,52.28z M265.53,49.88
				l0.33-0.03C265.75,49.86,265.64,49.87,265.53,49.88z M265.86,49.85l0.34-0.02C266.09,49.83,265.98,49.84,265.86,49.85z
				 M266.2,49.82l0.34-0.01C266.42,49.82,266.31,49.82,266.2,49.82z M266.54,49.81h0.34C266.76,49.81,266.65,49.81,266.54,49.81z
				 M266.87,49.82l0.34,0.01C267.1,49.82,266.99,49.82,266.87,49.82z M267.21,49.83l0.34,0.03
				C267.43,49.85,267.32,49.84,267.21,49.83z M267.55,49.86l0.33,0.04C267.77,49.88,267.66,49.87,267.55,49.86z M267.88,49.89
				l0.33,0.05C268.1,49.92,267.99,49.91,267.88,49.89z M268.21,49.94l0.33,0.06C268.43,49.98,268.32,49.96,268.21,49.94z M268.55,50
				l0.33,0.07C268.77,50.05,268.66,50.02,268.55,50z M268.87,50.07l0.33,0.08C269.09,50.13,268.98,50.1,268.87,50.07z M269.2,50.16
				l0.32,0.09C269.42,50.22,269.31,50.18,269.2,50.16z M269.53,50.25l0.32,0.1C269.74,50.31,269.63,50.28,269.53,50.25z
				 M269.85,50.35l0.32,0.11C270.06,50.43,269.95,50.39,269.85,50.35z M270.16,50.46l0.31,0.12
				C270.37,50.55,270.27,50.5,270.16,50.46z M270.47,50.59l0.31,0.13C270.68,50.68,270.58,50.63,270.47,50.59z M259.1,60.69
				l1.1-7.19L259.1,60.69L259.1,60.69z M260.19,53.5l0.22-0.41C260.34,53.22,260.26,53.36,260.19,53.5z M260.41,53.09l0.23-0.38
				C260.56,52.83,260.49,52.96,260.41,53.09z M260.64,52.71l0.25-0.36C260.81,52.47,260.72,52.59,260.64,52.71z M260.89,52.35
				l0.26-0.33C261.06,52.13,260.98,52.24,260.89,52.35z M261.15,52.02l0.28-0.3C261.33,51.82,261.24,51.92,261.15,52.02z
				 M261.43,51.72l0.29-0.28C261.62,51.53,261.52,51.62,261.43,51.72z M261.72,51.44l0.31-0.25
				C261.92,51.27,261.82,51.35,261.72,51.44z M262.03,51.19l0.32-0.23C262.24,51.03,262.13,51.11,262.03,51.19z M262.35,50.96
				l0.34-0.21C262.57,50.81,262.46,50.88,262.35,50.96z M262.69,50.75l0.36-0.18C262.92,50.62,262.8,50.68,262.69,50.75z
				 M263.04,50.56l0.37-0.16C263.29,50.45,263.16,50.51,263.04,50.56z M263.41,50.4l0.39-0.14C263.67,50.3,263.54,50.35,263.41,50.4
				z M263.8,50.26l0.41-0.12C264.07,50.17,263.94,50.21,263.8,50.26z M264.21,50.14l0.42-0.1C264.49,50.06,264.35,50.1,264.21,50.14
				z M264.63,50.03l0.44-0.08C264.92,49.97,264.78,50,264.63,50.03z M265.07,49.95l0.46-0.07C265.37,49.9,265.22,49.92,265.07,49.95
				z M259.18,56.98l0.08-0.53C259.23,56.63,259.2,56.81,259.18,56.98z M259.26,56.46l0.1-0.52
				C259.33,56.11,259.29,56.28,259.26,56.46z M259.36,55.94l0.12-0.51C259.44,55.59,259.4,55.77,259.36,55.94z M259.49,55.43
				l0.14-0.5C259.58,55.09,259.53,55.26,259.49,55.43z M259.63,54.92l0.17-0.49C259.74,54.6,259.68,54.76,259.63,54.92z
				 M259.79,54.44l0.19-0.47C259.92,54.12,259.85,54.27,259.79,54.44z M259.98,53.96l0.21-0.46
				C260.12,53.65,260.05,53.81,259.98,53.96z M198.07,31.48l0.56-0.06C198.44,31.44,198.25,31.46,198.07,31.48z M198.63,31.42
				l0.57-0.04C199.01,31.39,198.82,31.41,198.63,31.42z M199.21,31.38l0.58-0.03C199.59,31.36,199.4,31.37,199.21,31.38z
				 M199.79,31.35l0.59-0.01C200.18,31.34,199.98,31.35,199.79,31.35z M200.38,31.34h0.6C200.78,31.34,200.58,31.34,200.38,31.34z
				 M200.98,31.35l0.6,0.02C201.38,31.36,201.18,31.35,200.98,31.35z M201.58,31.36l0.6,0.04
				C201.98,31.39,201.78,31.37,201.58,31.36z M202.18,31.4l0.61,0.05C202.58,31.43,202.38,31.41,202.18,31.4z M202.79,31.45
				l0.61,0.07C203.19,31.5,202.99,31.47,202.79,31.45z M203.39,31.52l0.6,0.09C203.8,31.58,203.59,31.55,203.39,31.52z M204,31.61
				l0.6,0.11C204.4,31.68,204.2,31.64,204,31.61z M204.6,31.72l0.6,0.12C205,31.8,204.8,31.75,204.6,31.72z M205.2,31.84l0.59,0.14
				C205.59,31.93,205.39,31.89,205.2,31.84z M205.79,31.98l0.58,0.16C206.18,32.09,205.98,32.04,205.79,31.98z M206.37,32.15
				l0.57,0.18C206.75,32.27,206.56,32.21,206.37,32.15z M206.94,32.33l0.56,0.2C207.32,32.47,207.13,32.4,206.94,32.33z
				 M207.51,32.54l0.55,0.23C207.88,32.69,207.69,32.61,207.51,32.54z M208.06,32.77l0.54,0.25
				C208.42,32.93,208.24,32.84,208.06,32.77z M208.6,33.01l0.52,0.27C208.95,33.19,208.78,33.1,208.6,33.01z M209.12,33.29
				l0.51,0.29C209.46,33.48,209.3,33.38,209.12,33.29z M209.63,33.58l0.49,0.32C209.96,33.79,209.8,33.68,209.63,33.58z
				 M210.12,33.9l0.47,0.34C210.44,34.12,210.28,34,210.12,33.9z M210.59,34.24l0.45,0.36C210.89,34.47,210.74,34.35,210.59,34.24z
				 M211.04,34.6l0.43,0.39C211.33,34.86,211.19,34.73,211.04,34.6z M211.47,34.99l0.4,0.42C211.74,35.26,211.61,35.12,211.47,34.99
				z M211.87,35.41l0.38,0.44C212.13,35.69,212,35.55,211.87,35.41z M212.25,35.85l0.35,0.47C212.49,36.15,212.37,36,212.25,35.85z
				 M212.6,36.31l0.32,0.49C212.82,36.64,212.71,36.47,212.6,36.31z M212.92,36.81l0.29,0.52
				C213.12,37.15,213.03,36.98,212.92,36.81z M213.22,37.33l0.26,0.55C213.4,37.69,213.31,37.5,213.22,37.33z M213.48,37.88
				l0.23,0.58C213.64,38.25,213.56,38.06,213.48,37.88z M213.71,38.45l0.19,0.61C213.84,38.85,213.78,38.65,213.71,38.45z
				 M187.14,38.76l0.23-0.39C187.29,38.49,187.21,38.62,187.14,38.76z M187.36,38.36l0.24-0.38
				C187.52,38.11,187.44,38.24,187.36,38.36z M187.6,37.98l0.24-0.37C187.76,37.73,187.68,37.86,187.6,37.98z M187.84,37.61
				l0.25-0.36C188.01,37.37,187.93,37.49,187.84,37.61z M188.1,37.25l0.26-0.35C188.27,37.01,188.18,37.13,188.1,37.25z
				 M188.35,36.9l0.27-0.34C188.53,36.67,188.44,36.78,188.35,36.9z M188.62,36.56l0.27-0.33C188.8,36.34,188.71,36.45,188.62,36.56
				z M188.89,36.23l0.28-0.32C189.08,36.01,188.98,36.12,188.89,36.23z M189.17,35.91l0.29-0.31
				C189.36,35.7,189.27,35.8,189.17,35.91z M189.46,35.6l0.29-0.3C189.65,35.4,189.55,35.5,189.46,35.6z M189.75,35.3l0.3-0.29
				C189.95,35.11,189.85,35.2,189.75,35.3z M190.05,35.01l0.31-0.28C190.26,34.83,190.15,34.92,190.05,35.01z M190.36,34.74
				l0.32-0.27C190.57,34.56,190.47,34.65,190.36,34.74z M190.68,34.47l0.32-0.26C190.89,34.3,190.78,34.38,190.68,34.47z M191,34.21
				l0.33-0.25C191.22,34.05,191.11,34.13,191,34.21z M191.33,33.97l0.34-0.23C191.55,33.81,191.44,33.89,191.33,33.97z
				 M191.67,33.74l0.34-0.22C191.9,33.58,191.78,33.66,191.67,33.74z M192.01,33.51l0.35-0.21
				C192.25,33.37,192.13,33.44,192.01,33.51z M192.37,33.3l0.36-0.2C192.6,33.16,192.48,33.23,192.37,33.3z M192.72,33.1l0.37-0.19
				C192.97,32.97,192.85,33.03,192.72,33.1z M193.09,32.91l0.37-0.18C193.34,32.78,193.22,32.84,193.09,32.91z M193.47,32.73
				l0.38-0.17C193.72,32.61,193.59,32.67,193.47,32.73z M193.85,32.56l0.39-0.16C194.11,32.45,193.98,32.5,193.85,32.56z
				 M194.24,32.4l0.4-0.15C194.5,32.3,194.37,32.35,194.24,32.4z M194.63,32.25l0.4-0.14C194.9,32.16,194.77,32.21,194.63,32.25z
				 M195.04,32.12l0.41-0.12C195.31,32.03,195.17,32.07,195.04,32.12z M195.45,31.99l0.42-0.11
				C195.73,31.91,195.59,31.95,195.45,31.99z M195.87,31.88l0.42-0.1C196.15,31.81,196.01,31.84,195.87,31.88z M196.29,31.78
				l0.43-0.09C196.58,31.71,196.43,31.74,196.29,31.78z M196.72,31.68l0.44-0.08C197.02,31.63,196.87,31.66,196.72,31.68z
				 M197.16,31.6l0.45-0.07C197.46,31.56,197.31,31.58,197.16,31.6z M197.61,31.54l0.45-0.06C197.91,31.5,197.76,31.52,197.61,31.54
				z M198.61,61.46l-0.16,0.31l-0.16,0.33l-0.16,0.33l-0.15,0.34l-0.14,0.34l-0.14,0.35l-0.13,0.35l-0.12,0.35l-0.12,0.36
				l-0.11,0.36l-0.11,0.36l-0.1,0.37l-0.09,0.37l-0.09,0.37l-0.08,0.37l-0.07,0.37l-0.07,0.37l-0.06,0.38l-0.02,0.14
				c1.77,0.36,3.61,0.45,5.45,0.32l0.21-0.02L198.61,61.46L198.61,61.46z M184.1,53.19l-0.03-0.45
				C184.08,52.89,184.09,53.04,184.1,53.19z M184.07,52.74l-0.02-0.45C184.05,52.43,184.06,52.59,184.07,52.74z M184.05,52.28
				l-0.01-0.46C184.04,51.98,184.04,52.13,184.05,52.28z M184.03,51.83l-0.01-0.46C184.03,51.52,184.03,51.67,184.03,51.83z
				 M184.03,51.37v-0.46C184.03,51.06,184.03,51.21,184.03,51.37z M184.03,50.9l0.01-0.46C184.03,50.59,184.03,50.75,184.03,50.9z
				 M184.04,50.44l0.02-0.47C184.05,50.13,184.04,50.28,184.04,50.44z M184.06,49.97l0.03-0.46
				C184.07,49.66,184.07,49.82,184.06,49.97z M184.08,49.5l0.03-0.46C184.11,49.19,184.09,49.35,184.08,49.5z M184.12,49.04
				l0.04-0.47C184.15,48.72,184.13,48.88,184.12,49.04z M184.16,48.57l0.05-0.47C184.19,48.25,184.18,48.41,184.16,48.57z
				 M184.21,48.1l0.06-0.47C184.25,47.78,184.23,47.94,184.21,48.1z M184.27,47.63l0.07-0.47
				C184.31,47.31,184.29,47.47,184.27,47.63z M184.34,47.16l0.07-0.47C184.39,46.84,184.36,47,184.34,47.16z M184.41,46.69
				l0.08-0.47C184.47,46.38,184.44,46.53,184.41,46.69z M184.49,46.22l0.09-0.47C184.55,45.91,184.52,46.07,184.49,46.22z
				 M184.59,45.75l0.1-0.46C184.65,45.44,184.62,45.6,184.59,45.75z M184.68,45.29l0.11-0.46
				C184.75,44.98,184.72,45.13,184.68,45.29z M184.79,44.83l0.11-0.46C184.87,44.52,184.83,44.67,184.79,44.83z M184.91,44.37
				l0.12-0.46C184.99,44.06,184.95,44.21,184.91,44.37z M185.03,43.91l0.13-0.45C185.12,43.61,185.07,43.76,185.03,43.91z
				 M185.16,43.45L185.3,43C185.25,43.15,185.21,43.3,185.16,43.45z M185.3,43l0.15-0.45C185.4,42.7,185.35,42.85,185.3,43z
				 M185.45,42.56l0.16-0.44C185.55,42.26,185.5,42.41,185.45,42.56z M185.6,42.11l0.16-0.44C185.71,41.82,185.66,41.97,185.6,42.11
				z M185.77,41.67l0.17-0.43C185.88,41.38,185.82,41.53,185.77,41.67z M185.94,41.24l0.18-0.43C186.06,40.95,186,41.1,185.94,41.24
				z M186.12,40.81l0.19-0.42C186.24,40.53,186.18,40.67,186.12,40.81z M186.3,40.39l0.2-0.42
				C186.43,40.11,186.37,40.25,186.3,40.39z M186.5,39.97l0.2-0.41C186.63,39.7,186.57,39.83,186.5,39.97z M186.7,39.56l0.21-0.4
				C186.84,39.29,186.77,39.42,186.7,39.56z M186.92,39.15l0.22-0.4C187.06,38.89,186.99,39.02,186.92,39.15z M186.92,61.65
				l-0.21-0.33C186.78,61.43,186.85,61.54,186.92,61.65z M186.71,61.32l-0.2-0.33C186.57,61.1,186.64,61.21,186.71,61.32z
				 M186.5,60.99l-0.2-0.34C186.37,60.76,186.44,60.88,186.5,60.99z M186.31,60.65l-0.19-0.34
				C186.18,60.42,186.24,60.54,186.31,60.65z M186.12,60.31l-0.18-0.35C186,60.08,186.06,60.19,186.12,60.31z M185.94,59.96
				l-0.17-0.35C185.82,59.73,185.88,59.84,185.94,59.96z M185.77,59.61l-0.16-0.36C185.66,59.37,185.71,59.49,185.77,59.61z
				 M185.6,59.25l-0.16-0.36C185.5,59.01,185.55,59.13,185.6,59.25z M185.45,58.89l-0.15-0.36
				C185.35,58.65,185.4,58.77,185.45,58.89z M185.3,58.53l-0.14-0.37C185.21,58.28,185.25,58.41,185.3,58.53z M185.16,58.16
				l-0.13-0.37C185.07,57.91,185.12,58.04,185.16,58.16z M185.03,57.79l-0.12-0.37C184.95,57.54,184.99,57.67,185.03,57.79z
				 M184.91,57.42l-0.11-0.38C184.83,57.17,184.87,57.29,184.91,57.42z M184.8,57.04l-0.11-0.38
				C184.72,56.79,184.76,56.92,184.8,57.04z M184.69,56.66l-0.1-0.38C184.62,56.41,184.66,56.54,184.69,56.66z M184.59,56.28
				l-0.09-0.38C184.53,56.03,184.56,56.16,184.59,56.28z M184.5,55.9l-0.08-0.38C184.45,55.64,184.47,55.77,184.5,55.9z
				 M184.42,55.52l-0.07-0.39C184.37,55.26,184.39,55.39,184.42,55.52z M184.35,55.13l-0.07-0.39
				C184.3,54.87,184.32,55,184.35,55.13z M184.28,54.74l-0.06-0.39C184.24,54.49,184.26,54.61,184.28,54.74z M184.22,54.36
				l-0.05-0.39C184.19,54.1,184.2,54.23,184.22,54.36z M184.17,53.97l-0.04-0.39C184.14,53.71,184.16,53.84,184.17,53.97z
				 M184.13,53.58l-0.03-0.39C184.11,53.32,184.12,53.45,184.13,53.58"/>
			<path class="st3" d="M399.91,95.67c-6.05-0.55-12.1-1.03-18.16-1.5l-6.33-0.49v-6.15c-0.05-0.47-0.1-0.9-0.1-1.38V82.5l0.85-0.57
				c-0.12-0.26-0.24-0.51-0.35-0.75c-2.74-0.15-5.48-0.3-8.23-0.44l0.39,3.02c0.09,0.67,0.15,1.33,0.15,2.01v7.29l-7.28-0.45
				c-4.88-0.3-9.77-0.6-14.65-0.89l-5.79-0.35c-5.86-0.32-11.72-0.58-17.58-0.84l-5.75-0.26l-0.75-5.71
				c-0.04-0.31-0.06-0.61-0.08-0.91v6.51l-7.08-0.23c-6.55-0.21-13.11-0.38-19.66-0.55l-6.68-0.17v-2.26
				c-5.37,2.07-10.67,2.67-16.63,2.62c-8.4-0.07-17.2-1.82-24.01-7.02c-4.28-3.26-7.34-7.57-9.04-12.5
				c-0.08,2.16-0.16,4.32-0.23,6.48l-0.12,3.98l-3.51,1.87c-8.72,4.65-19.85,7.05-29.67,7.33c-11.91,0.34-25.31-1.29-35.25-8.41
				c-8.31-5.95-12.98-14.76-13.73-24.87c-0.02-0.3-0.04-0.6-0.05-0.89c-1.59,1.4-3.4,2.64-5.41,3.73c-6.87,3.7-15.38,5.02-23.26,5.4
				c-0.39,3.21-0.79,6.42-1.21,9.63c-0.1,0.73-0.29,2.17-0.38,3.48l5.94,0.33l-2,7.93c-0.06,0.43-0.09,0.86-0.16,1.3l-0.9,5.27
				l-5.34,0.41c-9.23,0.71-18.46,1.43-27.68,2.28c-0.33,0.03-0.66,0.06-0.99,0.09c-4.59,0.43-9.18,0.84-13.76,1.29
				c-4.61,0.45-9.26,0.58-13.6-1.3c-6.97-3.02-10.49-10.19-13.12-16.88c-0.51-1.31-2.06-5.48-3.63-9.28
				c-0.67,3.63-1.34,7.26-2.06,10.88c-0.19,0.97-0.62,3.07-0.87,4.91l5.74,0.15l-2.42,8.51c-0.19,0.66-0.29,1.35-0.48,2.02
				l-1.25,4.33l-4.47,0.58c-9.72,1.25-19.45,2.49-29.17,3.73L0,105.61l2.62-9.85c0.23-0.86,0.35-1.67,0.64-2.54l1.15-3.51l3.56-0.97
				c0.12-0.03,0.32-0.09,0.44-0.15c1.2-1.2,2.71-8.07,3.05-9.63c1.93-9.13,3.61-18.3,5.42-27.45c1.82-9.23,3.59-18.46,5.56-27.66
				c0.29-1.34,1.08-4.95,1.3-7.33l-4.43-1.27l1.73-6.5c0.19-0.72,0.38-1.43,0.57-2.15l1.49-5.67l5.83,0.59
				c8.08,0.81,16.17,1.64,24.26,2.41c8.26,0.79,17.11,3.14,23.15,9.18c5.91,5.91,7.5,13.7,6.22,21.8
				c-1.13,7.17-5.47,13.76-11.22,18.39c2.78,3.9,5.2,8.34,6.85,11.5c2.25,4.31,5.5,9.8,9.28,12.99c0.28,0.23,0.56,0.45,0.84,0.65
				c0.47-1.75,0.85-4.15,0.97-5.04c1.11-7.58,2.02-15.19,3.04-22.78c1.03-7.65,2.05-15.3,3.16-22.94c0.14-0.95,0.46-3.09,0.55-4.76
				l-5.07-0.96l1.57-6.93c0.14-0.63,0.24-1.27,0.38-1.9l1.3-5.76l5.89,0.43c8.17,0.6,16.35,1.15,24.53,1.64
				c8.34,0.5,17.46,2.55,24.37,7.46c4.94,3.51,8.23,8.14,9.54,13.58c1.34-1.8,2.83-3.5,4.44-5.09c8.67-8.52,20.45-13.26,32.51-13.97
				c2.3-0.14,4.61-0.22,6.92-0.15c7.6,0.23,15.08,2.13,22.35,4.23l5.16,1.49l-0.2,5.37c-0.19,5.04-0.38,10.07-0.57,15.11l-0.16,4.3
				c1,0,1.99,0,2.99,0l6.87-0.01v1.41c0.19-0.21,0.39-0.43,0.59-0.63c6.05-6.33,14.62-9.81,23.25-10.58
				c1.71-0.15,3.43-0.23,5.14-0.22c4.95,0.03,9.35,0.73,14.09,1.9V32.7l6.82-0.04c6.33-0.04,12.66-0.07,19-0.1l6.35-0.04v-0.01
				l6.8-0.06c6.27-0.06,12.55-0.1,18.82-0.19l6.95-0.09v6.91c0.02,0.71,0.04,1.33-0.06,2.04l-0.68,5.15l-2.14,0.31
				c0.01,0.23,0.03,0.45,0.04,0.62c0.3,4.74,0.5,9.49,0.77,14.23c0.26,4.69,0.51,9.37,0.85,14.06c0.02,0.24,0.04,0.55,0.07,0.89
				c0.89-1.23,1.9-3.47,2.13-4.04c2.47-5.87,4.81-11.8,7.15-17.72c2.39-6.05,4.7-12.13,6.96-18.23l1.63-4.41l4.7-0.07
				c1.88-0.03,3.76-0.06,5.63-0.08l4.21-0.06l1.96,3.72c3.53,6.71,7.12,13.38,10.64,20.09c3.64,6.92,7.34,13.81,11.08,20.68
				c0,0.01,0.01,0.01,0.01,0.02c-0.48-3.83-0.93-7.67-1.35-11.52c-0.6-5.37-1.17-10.74-1.81-16.1c-0.07-0.59-0.19-1.65-0.36-2.59
				l-4.84-0.61l0.69-6.11c-0.04-0.36-0.07-0.71-0.07-1.09v-6.74l6.74-0.12c5.99-0.11,11.99-0.21,17.98-0.32l6.72-0.14
				c3.27-0.07,6.54-0.14,9.81-0.2l2.82-0.05l2.04,1.95c5.98,5.72,11.99,11.41,17.86,17.25c1.15,1.15,2.3,2.3,3.45,3.45
				c-0.21-1.32-0.42-2.63-0.65-3.95c-0.15-0.89-0.47-2.81-0.85-4.22l-3.81-0.43l-0.52-5.56c-0.05-0.52-0.14-1.03-0.19-1.56
				l-0.67-7.32l7.34-0.17c4.15-0.09,8.31-0.19,12.46-0.28l5.87-0.13l1.04,5.77c0.1,0.53,0.19,1.07,0.29,1.6l1.24,6.91l-3.47,0.54
				c0.14,0.99,0.32,1.96,0.42,2.56c1.44,8.3,2.77,16.62,4.2,24.93c1.42,8.25,3.03,16.47,4.77,24.66l2.01,9.43l-9.57-1.2
				c-1.21-0.15-2.41-0.31-3.62-0.48l-2.29-0.32l-1.63-1.63c-7.19-7.2-14.36-14.43-21.54-21.65c-1.84-1.85-3.69-3.7-5.54-5.55
				c0.32,2.13,0.66,4.26,1,6.39c0.14,0.85,0.45,2.85,0.84,4.1l2.89,0.73l1.15,3.66c0.35,1.11,0.55,2.25,0.55,3.41v7.7l-7.65-0.88
				c-4.4-0.51-8.81-1-13.21-1.51l-5.45-0.62v-0.01l-0.69-0.07c-6.64-0.65-13.29-1.28-19.94-1.92L399.91,95.67L399.91,95.67
				L399.91,95.67z M285.95,61.48c0-0.09,0-0.19-0.01-0.28c-0.03-1.56-0.06-3.11-0.09-4.67h-10.78l-1.77-3.99
				c-0.41-0.68-1.83-1.5-2.53-1.82c-1.63-0.74-3.47-1.06-5.25-0.84c-2.49,0.31-4.21,1.35-5.34,3.62c-1.19,2.4-1.36,5.58-0.98,8.18
				c0.85,5.78,5.59,9.38,11.35,9.19c3.3-0.11,4.74-1.1,5.56-4.38l1.4-5.54l5.7,0.37c0.43,0.03,0.86,0.06,1.29,0.08L285.95,61.48
				L285.95,61.48z M214.67,41.76l-0.77-2.7c-1.89-6.61-9.88-8.25-15.83-7.58c-4.9,0.55-8.52,3.04-10.93,7.28
				c-2.39,4.2-3.4,9.65-3.04,14.43c0.31,4.16,2,8.29,5.1,11.15c3.49,3.21,8.13,4.3,12.78,3.97c0.14-0.01,0.29-0.02,0.43-0.03
				c0.16-3.42,0.31-6.85,0.44-10.27c0.01-0.2,0.02-0.45,0.03-0.73l-6.57-0.18v-6.68c0-0.78,0.05-1.55,0.12-2.33l0.51-6.29l6.31-0.01
				C207.06,41.77,210.86,41.76,214.67,41.76L214.67,41.76z M315.46,76.32l3.86-0.3c0-0.04-0.01-0.08-0.01-0.11
				c-0.11-1.8-0.21-3.6-0.3-5.4c-2.29-0.05-4.58-0.09-6.87-0.14c0.05,1.39,0.1,2.78,0.16,4.17c0.01,0.27,0.02,0.64,0.05,1.03
				l3.08,0.47L315.46,76.32L315.46,76.32z M313.85,46.45l-0.02,0.14l-2.4,0.3c0.01,0.15,0.01,0.29,0.02,0.42
				c0.06,1.64,0.11,3.28,0.16,4.92c2.19,0.03,4.38,0.07,6.57,0.1c-0.06-1.46-0.12-2.92-0.2-4.37c-0.02-0.28-0.03-0.65-0.06-1.05
				L313.85,46.45L313.85,46.45z"/>
		</g>
		<g>
			<g>
				<g>
					<path class="st1" d="M482.29,96.56c-2.05-10.08-3.84-20.01-5.64-29.94c-0.17-0.25-0.34-0.49-0.54-1.21
						c-0.81-5.68-1.6-10.89-2.39-16.1c-0.18-0.3-0.37-0.6-0.56-1.4c0.01-1.99,0.02-3.48,0.03-4.97c0.29-0.95,0.57-1.91,1.19-3.12
						c0.52-0.58,0.7-0.91,0.88-1.23c-5.62,0.45-5.46,3.98-4.88,7.84c-0.58-3.87-0.75-7.41,4.75-8.14
						c-3.51-0.33-6.89-0.46-10.26-0.29c-0.6,0.03-1.13,1.32-1.69,2.03c0.74,0.96,1.47,1.93,2.21,2.98c-0.74-0.98-1.5-1.9-2.27-2.72
						c1.17,1.83,2.4,3.43,3.66,4.83c0.14,0.23,0.28,0.44,0.42,0.68c0.04,0.86,0.09,1.2,0.13,1.54c0.23,0.86,0.47,1.73,0.7,2.69
						c-0.24-0.88-0.48-1.69-0.73-2.41c0.37,1.66,0.76,3.08,1.17,4.32c0.05,0.25,0.11,0.49,0.16,0.76c0.05,1.47,0.1,2.36,0.14,3.25
						c0.23,0.83,0.45,1.66,0.69,2.73c0.01,0.24-0.05,0.21-0.05,0.21c0.12,0.4,0.24,0.81,0.36,1.3c-0.12-0.42-0.24-0.77-0.36-1.04
						c0.19,0.94,0.39,1.65,0.6,2.17c0.03,0.15,0.06,0.28,0.09,0.45c0.04,1.36,0.09,2.17,0.13,2.98c0.23,0.81,0.46,1.62,0.69,2.66
						c0,0.24-0.05,0.22-0.05,0.22c0.12,0.42,0.25,0.84,0.37,1.34c-0.12-0.43-0.25-0.8-0.38-1.09c0.2,0.96,0.4,1.7,0.62,2.22
						c0.03,0.14,0.05,0.27,0.08,0.43c0.03,1.3,0.06,2.06,0.08,3.11c-0.59,2.37-1.15,4.45-1.72,6.53c0.57-2.08,1.14-4.15,1.47-6.53
						c-5.58-5.6-10.92-10.91-16.27-16.22c-2.05,0.66-4.09,1.33-6.37,2.07c2.28-0.74,4.33-1.4,6.27-2.3
						c-4.9-4.94-10.11-9.29-14.37-14.44c-4.05-4.9-8.85-4.31-14.46-3.94c0.75,1.08,1.25,1.79,1.75,2.51
						c0.51,0.85,1.01,1.71,1.51,2.82c-0.01,0.26-0.06,0.24-0.06,0.24c0.23,0.65,0.47,1.31,0.7,2.03c-0.23-0.65-0.46-1.24-0.69-1.76
						c0.41,1.44,0.81,2.64,1.23,3.64c0.06,0.22,0.12,0.46,0.17,0.7c0.04,1.53,0.1,2.43,0.16,3.33c0.2,1.08,0.4,2.15,0.63,3.46
						c0.03,0.24-0.03,0.21-0.03,0.21c0.12,0.42,0.23,0.85,0.35,1.35c-0.11-0.43-0.23-0.79-0.35-1.08c0.19,0.99,0.38,1.76,0.59,2.32
						c0.03,0.17,0.06,0.32,0.09,0.51c0.04,1.84,0.09,3.09,0.14,4.35c0.12,0.49,0.24,0.99,0.36,1.57c-0.12-0.53-0.25-0.97-0.39-1.3
						c0.18,1.02,0.38,1.8,0.59,2.36c0.01,0.08,0.03,0.16,0.04,0.24c-0.01,0.39,0.04,0.6,0.04,0.6c0.12,0.51,0.23,1.03,0.35,1.63
						c-0.12-0.52-0.23-0.98-0.35-1.36c0.19,1.14,0.39,2.05,0.6,2.75c0.03,0.19,0.06,0.36,0.09,0.56c0.04,1.71,0.09,2.82,0.13,3.94
						c0.23,0.97,0.45,1.95,0.69,3.16c0.01,0.24-0.05,0.22-0.05,0.22c0.12,0.42,0.25,0.85,0.37,1.36c-0.12-0.44-0.25-0.81-0.38-1.1
						c0.2,0.98,0.4,1.74,0.63,2.28c0.03,0.15,0.05,0.28,0.08,0.45c0.03,0.93,0.07,1.31,0.11,1.69c0.12,0.57,0.25,1.15,0.37,1.81
						c-0.12-0.61-0.26-1.14-0.39-1.56c0.18,1.15,0.38,2.07,0.6,2.77c0.02,0.11,0.03,0.2,0.05,0.31c-0.01,0.44,0.06,0.79,0.06,0.79
						c0.07,0.36,0.13,0.71,0.18,1.11c-0.05-0.32-0.12-0.61-0.19-0.84c0.04,0.87,0.09,1.51,0.25,2.03c0,0.14,0,0.27-0.01,0.42
						c-0.92,1.23-1.63,2.07-2.06,2.93c1.95-1.3,5.06-2.65,5.04-3.96c0.02,1.31-3.09,2.65-5.07,4.19c0.23,0.47,0.76,0.74,1.29,1.01
						c2.86,0.14,5.72,0.29,9.14,0.49c0.84,0.08,1.36,0.12,1.49,0.13c-7.05-10.17-5.27-22.45-7.76-33.64c0-0.59,0-1.17,0-2.52
						c1.52,1.35,2.67,2.27,3.71,3.31c11.5,11.54,22.94,23.14,34.53,34.59c1.44,1.42,3.64,2.06,5.76,2.8
						C482.55,97.8,482.55,97.25,482.29,96.56z"/>
					<path class="st1" d="M143.29,38.44c0.02-5.17,2.37-8.08,6.82-10.32c-4.2-2.98-8-7.31-12.46-8.16
						c-11.87-2.25-24.01-3.02-36.06-4.26c-0.31-0.03-0.76,1.28-1.15,1.97c0.52,0.07,1.03,0.15,1.56,0.46
						c0.47,1.48,0.94,2.73,1.4,4.55c-2.52,19.42-4.84,38.29-7.8,57.06c-0.42,2.66-3.58,4.88-5.49,7.4c-0.18,0.1-0.36,0.19-0.53,0.29
						c-3.57-2.55-7.47-4.28-9.64-7.26C74.1,72.15,69,63.6,63.61,55.26c-4.55,2.39-5.44,4.75-4.89,7.15
						c-0.57-2.44,0.29-4.86,4.84-7.35c-0.12-0.32-0.19-0.44-0.26-0.56c-0.51-0.4-1.02-0.79-1.71-1.28
						c-2.14,0.93-4.11,1.94-6.07,2.96c1.97-1.02,3.93-2.03,5.9-3.05c3.65-2.98,7.29-5.96,11.21-8.84c0.19,0.07,0.22,0.08,0.23,0.09
						c0.32-0.95,0.64-1.9,1.22-2.88c0.01,0,0.01,0,0.01,0c-0.59,0.98-0.91,1.93-0.98,2.82c0.58-0.99,0.92-1.92,0.99-2.82
						c0.24-0.02,0.24,0.01,0.24,0.01c0.35-1.27,0.69-2.54,1.25-4.28c-0.68-5.67-1.57-10.88-2.73-16.05
						c-2.05,2.03-5.55,4.26-5.32,5.97c-0.23-1.72,3.27-3.95,5.25-6.24c-1.96-2.07-3.91-4.95-6.33-5.43
						c-11.96-2.34-24.05-4.07-36.11-5.86c-0.45-0.07-1.16,1.56-1.75,2.39c0.68,0.94,1.36,1.89,2.05,3.43
						c-0.67,5.45-1.14,10.34-2.05,15.16c-2.61,13.89-5.04,27.83-8.22,41.6c-2.02,8.75-1.46,18.76-10.03,24.97
						c8.92-2.47,13.95-7.1,16.78-15.11c-2.84,8.03-7.89,12.7-16.88,15.38c0,0.44,0.09,0.61,0.49,0.75c9.3-1.06,18.3-2.09,27.44-3.32
						c0.11-0.16,0.21-0.31,0.3-0.44c-1.24-3.01-2.48-4.85-2.66-6.78c-0.21-2.31,0.49-4.71,0.8-7.07c0.08-0.83,0.17-1.66,0.43-2.64
						c0.18-0.15,0.2-0.1,0.2-0.1c0.12-0.96,0.24-1.91,0.55-3.36c0.22-0.94,0.25-1.39,0.29-1.84c0.32-1.71,0.64-3.42,1.15-5.59
						c0.43-1.94,0.66-3.41,0.9-4.89c0.11-0.74,0.22-1.47,0.53-2.38c0.2-0.17,0.2-0.13,0.2-0.13c0.12-0.87,0.23-1.74,0.38-2.83
						c1.85,0.3,3.35,0.55,5.34,0.75c-1.27-1.18-3.05-2.31-5.19-3.68l0,0c0.09-0.04,0.51-0.24,0.94-0.43
						c0.01-1.37,0.02-2.74,0.07-4.46c0.15-1.21,0.27-2.07,0.6-3.1c1.39-6.73,2.56-13.29,3.76-20.17c0.13-1.15,0.23-1.99,0.53-2.99
						c0.2-0.16,0.15-0.11,0.17-0.09c0.23-0.95,0.44-1.93,0.84-3.81c3.07,1.6,5.55,2.89,8.38,4.11c1.63-0.71,2.93-1.36,4.22-2.01
						c-1.29,0.65-2.58,1.29-4.02,2.14c0.37,1.68,0.88,3.16,1.38,4.91c-0.01,0.26,0.02,0.43,0.06,0.51c0.09,0.49,0.18,0.96,0.25,1.44
						c-0.07-0.41-0.14-0.78-0.22-1.09c0.11,1.19,0.23,2.11,0.42,2.82c-0.59,9.21-3.97,16.48-12.48,20.6
						c-1.05,0.51-2.28,0.65-3.7,1.07c-0.66,0.29-1.13,0.5-1.21,0.54c2.14,1.37,3.92,2.5,5.47,3.8c1.29,3.24,2.8,6.32,4.27,9.66
						c-0.04,0.27-0.08,0.26-0.08,0.26c0.49,0.81,0.99,1.62,1.48,2.68c0,0.25-0.05,0.25-0.05,0.25c0.53,1.28,1.06,2.56,1.56,4.09
						c-0.03,0.26-0.07,0.25-0.07,0.25c0.07-0.03,0.16-0.05,0.34-0.08c-0.16,0.03-0.25,0.11-0.34,0.34c0.48,1.08,0.95,1.91,1.44,2.47
						c-0.23-1.1-0.47-1.94-0.9-2.82c-0.06,0-0.11,0.01-0.15,0.01c0.11-0.01,0.24-0.02,0.44-0.03c3.33-0.51,6.19-1.04,8.59-1.48
						c-2.4,0.44-5.26,0.97-8.4,1.52c-0.05,0.86,0.19,1.7,0.43,2.78c0,0.24-0.06,0.23-0.06,0.23c0.52,1.05,1.05,2.09,1.55,3.39
						c-0.02,0.24-0.07,0.25-0.07,0.25c6.06,12.04,16.4,9.72,26.83,8.4c10.63-1.34,21.38-1.76,32.65-2.61
						c0.61-0.7,0.88-1.48,0.63-2.03c-0.97-2.1-3.05-4.16-2.99-6.18c0.15-5.26,1.2-10.5,1.9-15.75c0.21-1.39,0.42-2.77,0.62-4.09
						c12.62-0.89,25.18-0.84,34.03-11.88c0.23-0.02,0.24,0.01,0.24,0.01c0.32-1.09,0.65-2.19,1.21-3.74
						c-0.43-5.38-1.09-10.3-1.75-15.23C145.66,30.37,143.31,33.27,143.29,38.44z M116.91,55.68c1.64,0.19,3.44,0.44,5.28,0.48
						c-1.87-0.05-3.75-0.29-5.58-0.48c1.25-9.46,2.42-18.64,3.63-28.11c0.17-1.29,0.31-2.3,0.59-4.38
						c3.88,1.56,7.19,2.89,10.71,4.36c0.62-1.19,1.04-2.52,1.9-5.24c-0.85,2.72-1.27,4.06-1.69,5.39c0.52,1.04,1.05,2.09,1.55,3.39
						c-0.02,0.26-0.01,0.22-0.03,0.22c0.45,1.05,0.92,2.11,1.37,3.43C135.31,47.15,128.81,54.8,116.91,55.68z"/>
					<path class="st1" d="M232.05,50.29c-6.79,0.48-13.49,6.33-13.62,11.91c0.13-5.58,6.82-11.44,13.5-12.19
						c-8.7-0.34-17.28-0.43-25.85-0.38c-0.73,0-1.45,0.95-2.17,1.45c1.96,0.76,3.93,1.51,5.79,2.48c0.1,0.78,0.23,1.5,0.38,2.32
						c-0.16-0.75-0.32-1.44-0.49-2.12c-1.63-0.71-3.26-1.41-5.24-1.8c1.74,2.03,3.83,3.75,5.95,5.2c0.02,0.12,0.04,0.22,0.06,0.35
						c-0.3,6.1-0.6,11.59-1.02,19.09c-6.64-0.92-12.91-1.79-19.22-2.37c-0.26,1.46-0.48,2.61-0.8,4.28
						c0.32-1.67,0.54-2.82,0.61-4.44c-11.31-6.73-13.29-16.72-11.43-28.26c0.33-1.35,0.65-2.69,1.17-4.18
						c0.19-0.14,0.21-0.09,0.21-0.09c0.3-0.98,0.6-1.96,1.16-2.96h0.01c-0.57,1-0.87,1.98-0.93,2.86c0.56-1.03,0.88-1.96,0.94-2.86
						c0.24-0.02,0.24,0,0.24,0c0.34-0.94,0.67-1.89,1.25-2.87c0.24-0.03,0.28,0.02,0.28,0.02c2.69-7.55,14.76-12.55,23.94-9.76
						c2.62,0.8,5.08,2.09,7.86,3.31c0.87-0.85,1.5-1.85,2.14-2.86c-0.63,1-1.27,2.01-1.9,3.01c1.48,1.91,2.97,3.82,4.38,5.97
						c-0.07,0.25-0.11,0.25-0.11,0.25c0.51,0.59,1.01,1.18,1.6,2.03c-0.1-1.87,0.25-4.22-0.35-6.11c0.6,1.89,0.26,4.27,0.43,6.37
						c0,0-0.02,0.14-0.06,0.28c0.03-0.16,0.03-0.36-0.03-0.55c-0.59-0.85-1.1-1.44-1.61-1.78c0.5,1.05,1.01,1.85,1.58,2.5
						c0,0,0,0.01-0.01,0.01c-0.04,0.07-0.06,0.1-0.07,0.11c0.51-0.03,1.03-0.06,1.84-0.42c0.5-5.11,0.7-9.9,0.68-14.59
						c-3.02,1.39-4.66,2.92-3.67,5.91c-0.99-2.99,0.64-4.56,3.56-6.17c-9.1-1.43-18.31-3.35-27.53-3.41
						c-19.19-0.14-40.04,16.69-37.41,40.09c0.46,1.43,0.91,2.87,1.38,4.55c0.01,0.25-0.04,0.23-0.04,0.23
						c0.51,0.8,1.01,1.61,1.84,2.61c3.01-1.22,5.71-2.64,8.32-4.01c-2.6,1.37-5.3,2.8-8.26,4.25c5.86,11.38,16.67,14.79,28.28,15.93
						c12.43,1.22,24.67-0.33,36.51-6.04c0.77-7.28,1.23-14.21,1.69-21.14c0.77-1.54,1.55-3.08,2.69-4.82
						C231.24,50.97,231.65,50.63,232.05,50.29z M220.05,30.81c-0.24-0.47-0.43-0.9-0.57-1.32
						C219.62,29.91,219.81,30.34,220.05,30.81z"/>
					<path class="st1" d="M38.46,94.44C38.46,94.45,38.46,94.45,38.46,94.44C38.92,93.75,38.79,93.96,38.46,94.44z"/>
					<path class="st1" d="M374.33,40.13c-6.23,13.65-12.24,27.4-18.89,40.85c-1.02,2.07-4.94,2.72-7.82,4.27
						c0.18,0.41,0.67,0.57,1.16,0.74c3.63,0.19,7.27,0.39,11.49,0.58c-0.04-1.48-0.67-2.96-1.3-4.43c0.33-1.34,0.65-2.67,1.17-4.15
						c0.19-0.14,0.22-0.1,0.22-0.1c0.71-1.01,1.39-2.87,2.13-2.89c5.51-0.16,11.03-0.06,16.54,0.21c0.83,0.04,1.6,1.35,2.4,2.35
						c0,0.27-0.05,0.27-0.05,0.27c0.5,0.81,1.01,1.62,1.5,2.67c-0.01,0.24-0.06,0.23-0.06,0.23c0.37,0.43,0.75,0.86,1.29,1.44
						c1.91-0.45,3.66-1.05,5.41-1.64c-1.75,0.6-3.49,1.2-5.24,1.79c0.01,0.49,0.01,0.99,0,1.64c0-0.62-0.04-1.17-0.17-1.79
						c-0.54-0.58-0.91-1.01-1.32-1.18c0.46,1.49,0.95,2.71,1.47,3.68c0,0.09,0,0.16-0.01,0.25c-0.32,1.33-0.58,2.17-0.68,2.81
						c2.44-1.95,4.7-3.71,6.96-5.46c-2.26,1.76-4.52,3.51-6.87,5.54c-0.08,0.26,0.13,0.36,0.13,0.36c5.73,0.45,11.46,0.9,17.77,1.36
						c0.78-0.34,1.26-0.89,1.16-1.01c-2.25-2.99-4.97-5.71-6.78-8.94C388.58,66.52,381.5,53.3,374.33,40.13z M377.16,70.48
						c-4.31-0.04-8.42-0.05-12.86-0.12c-0.33-0.06-0.64,0.04-1.03,0.14c0.89,0.65,2.16,1.64,3.45,1.67
						c-1.29-0.03-2.56-1.02-3.84-1.57c1.09-2.01,1.72-3.83,2.36-5.66c1.29-2.38,2.09-4.53,2.89-6.68c0.44-1.84,0.79-3.19,1.13-4.54
						c1.61-1.24,2.8-2.26,4.67-3.86c-1.87,1.6-3.06,2.62-4.24,3.63c0.51,1.17,1.01,2.34,1.51,3.77c-0.01,0.26,0.02,0.22-0.01,0.22
						c0.48,0.81,0.97,1.62,1.46,2.69c-0.01,0.26,0.02,0.22-0.01,0.22c0.48,0.81,0.98,1.62,1.46,2.69c-0.01,0.26,0.01,0.22-0.01,0.22
						c0.48,0.81,0.98,1.62,1.47,2.69c-0.01,0.26,0.01,0.22-0.01,0.22c0.48,0.81,0.98,1.62,1.47,2.68c-0.02,0.26,0.01,0.22-0.02,0.22
						C377.11,69.58,377.23,70.04,377.16,70.48z"/>
					<path class="st1" d="M283.05,71.16c-0.06,3.4-1.06,5.9-3,7.48c1.91-1.56,2.86-4.02,2.81-7.33c-3.37,2.5-6.28,6.14-9.78,6.85
						c-3.84,0.78-8.23-1.15-12.41-1.64c0.57,0.75,1.11,1.65,1.67,2.39c-0.59-0.77-1.17-1.73-1.82-2.59
						c-6.27-5.05-8.67-11.2-7.78-18.72c0.33-1.39,0.66-2.77,1.18-4.29c0.01-0.01,0.01-0.01,0.02-0.01
						c-0.54,1.54-0.88,2.92-1.01,4.12c0.54-1.54,0.88-2.91,1.01-4.13c0.17-0.11,0.22-0.07,0.22-0.07c1.59-8.9,13.9-12.15,23.15-5.94
						c0.15,0.11,0.28,0.21,0.42,0.32c0.86,0.94,1.61,1.72,2.39,2.23c0.31,0.33,0.64,0.39,1.27,0.12c-0.13-3.03-0.55-5.72-0.97-8.4
						c-2.4,0.38-4.99,1.53-7.19,1.02c2.2,0.51,4.78-0.64,6.92-1.17c-5.5-0.56-10.73-1.19-15.98-1.34
						c-12.55-0.35-28.73,10.6-24.64,28.35c0.48,1.03,0.96,2.07,1.42,3.34c-0.02,0.24-0.05,0.25-0.05,0.25s0.31-0.06,0.71-0.15
						c1.89-1.81,4.84-3.7,4.66-5.21c0.19,1.5-2.76,3.4-4.5,5.22c0.1,0.78,0.38,1.5,0.62,2.35c-0.25-0.85-0.57-1.56-1.02-2.26
						c-0.16-0.01-0.47,0.05-0.49,0.32c0.5,1.05,1.01,1.83,1.62,2.36l0,0c-0.1,0.25-0.1,0.23-0.1,0.23
						c7.91,6.53,16.94,9.79,27.2,8.66c4.36-0.48,8.62-1.84,13.25-3.12c0.88-3.87,1.43-7.43,1.98-10.98
						c-0.4-0.06-0.79-0.13-1.19-0.19C283.46,69.89,283.25,70.52,283.05,71.16z"/>
					<path class="st1" d="M425.62,92.45c0.91-0.33,0.68-0.25-0.05-0.15C425.59,92.35,425.61,92.4,425.62,92.45z"/>
					<path class="st1" d="M418.29,41.35c0.54-0.66,0.82-0.97,1.1-1.29c-1.42,0.16-2.65,0.57-3.68,1.21c1.08-0.7,2.39-1.16,3.93-1.36
						c-5.74-0.45-11.73-0.74-19.19-1.11c1.74,1.65,2.21,2.09,2.68,2.54c0.51,0.86,1.03,1.71,1.55,2.81
						c0.01,0.25-0.04,0.22-0.04,0.22c0.26,0.81,0.52,1.62,0.79,2.67c0,0.24-0.05,0.22-0.05,0.22c0.12,0.4,0.24,0.8,0.36,1.29
						c-0.12-0.41-0.24-0.76-0.36-1.03c0.19,0.94,0.39,1.65,0.61,2.16c0.03,0.16,0.06,0.3,0.09,0.48c0.05,2.1,0.09,3.62,0.13,5.13
						c0.14,0.69,0.28,1.39,0.42,2.21c-0.14-0.78-0.29-1.44-0.44-1.95c0.19,1.2,0.39,2.15,0.59,2.86c0.01,0.05,0.01,0.08,0.02,0.13
						c0.02,0.35,0.08,0.54,0.08,0.54c0.11,0.49,0.22,0.99,0.33,1.57c-0.11-0.51-0.22-0.95-0.34-1.32c0.18,1.08,0.36,1.95,0.56,2.62
						c0.03,0.19,0.06,0.36,0.08,0.56c0.05,2.14,0.1,3.7,0.14,5.25c0.12,0.56,0.24,1.13,0.36,1.78c-0.12-0.59-0.25-1.11-0.39-1.53
						c0.18,1.12,0.38,2.02,0.59,2.71c0.02,0.12,0.04,0.23,0.06,0.36c0.01,0.44,0.07,0.79,0.07,0.79c0.11,0.43,0.22,0.86,0.34,1.38
						c-0.11-0.44-0.23-0.82-0.35-1.11c0.17,0.98,0.36,1.74,0.57,2.29c0.03,0.17,0.06,0.32,0.08,0.51c0.04,1.93,0.08,3.26,0.13,4.59
						c0.11,0.61,0.22,1.24,0.34,1.94c-0.12-0.63-0.23-1.2-0.36-1.68c0.18,1.24,0.38,2.28,0.57,3.12c0.03,0.21,0.06,0.4,0.09,0.63
						c-0.48,2.24-0.96,3.93-1.19,5.66c-0.07,0.05-0.15,0.11-0.22,0.16c-0.22,0.53,0.04,1,0.3,1.48c5.33,0.48,10.66,0.97,16.54,1.5
						c0.14-0.02,0.27-0.03,0.38-0.05c-6.01-15.94-6.4-32.38-7.67-48.64C417.94,43.01,417.98,42.35,418.29,41.35z"/>
					<path class="st1" d="M307.19,83.7L307.19,83.7c0,0.04,0.01,0.09,0.01,0.13C308.69,83.52,308.24,83.62,307.19,83.7z"/>
					<path class="st1" d="M338.79,76.02c0.1,0.5,0.23,0.92,0.38,1.23c-0.11-0.85-0.28-1.49-0.5-1.94c0.02,0.19,0.05,0.36,0.08,0.53
						c-0.05-0.26-0.09-0.54-0.14-0.88c0.03-11.49,0.06-22.43-0.19-33.38c0.1-0.03,0.19-0.07,0.29-0.1c0.53-0.46,0.48-1.33,0.42-1.33
						c-5.93-0.06-11.86-0.06-18.52-0.06c1.54,1.32,2.37,2.03,3.2,2.74c0.49,1.31,0.99,2.62,1.49,4.54c0,4.64,0,8.67,0,12.73
						c-6.8,0-13.26,0-19.77,0.3c-0.13-0.1-0.26-0.2-0.39-0.31c-0.01-5.16-0.02-9.68-0.03-14.2c0.23-1.01,0.46-2.02,0.98-3.38
						c0.31-0.5,0.37-0.7,0.42-0.88c0.1-0.03,0.2-0.06,0.3-0.08c0.28-0.48,0.27-1.32,0.25-1.32c-5.91-0.06-11.82-0.06-18.68-0.06
						c1.76,1.4,2.55,2.04,3.35,2.68c0.32,0.83,0.63,1.66,0.92,2.74c-0.02,0.25-0.07,0.24-0.07,0.24c0.12,0.42,0.23,0.85,0.35,1.37
						c-0.12-0.45-0.24-0.83-0.37-1.12c0.18,0.95,0.37,1.68,0.59,2.19c0.03,0.16,0.06,0.3,0.09,0.47c0.04,5.54,0.2,10.48,0.07,15.42
						c-0.16,5.95-0.55,11.9-0.57,17.89c-0.08,0.03-0.16,0.06-0.24,0.1c-1.04,0.3-1.57,0.57-2.73,1.17c1.38,0.22,2.02,0.32,2.66,0.43
						c4.72-0.02,9.44-0.04,14.76-0.05c-0.47-5.82-0.92-11.32-1.37-16.82c0.85-0.74,1.68-2.1,2.54-2.13
						c5.69-0.16,11.39-0.02,17.42,0.07c1.12-0.47,1.91-1,2.69-1.53c-0.78,0.53-1.57,1.06-2.35,1.59c0,0.74-0.01,1.47-0.02,2.81
						c-0.25,5.65-0.49,10.71-0.74,15.77c-0.08,0.02-0.16,0.05-0.24,0.07c-0.51,0.3-0.78,0.54-1.04,0.78
						c0.43,0.27,0.87,0.54,1.3,0.81c4.97,0.01,9.95,0.03,15.47,0.05c0.85-0.2,1.45-0.54,1.42-0.62c-1.01-2.38-2.08-4.74-3.15-7.09
						C339.01,77.03,338.9,76.6,338.79,76.02z"/>
					<path class="st1" d="M368.82,40.03c-4.05,10.2-7.63,20.21-12.02,29.86c-2.44,5.35-6.24,10.07-9.15,15.1
						c2.85-1.28,6.76-1.93,7.79-4c6.65-13.44,12.67-27.2,18.56-40.9C371.98,40.03,370.31,40.03,368.82,40.03z"/>
					<path class="st1" d="M227.99,56.15c1.54-1.35,2.86-2.52,4.43-3.9c-0.91-0.29-1.35-0.43-2.05-0.56
						C229.33,53.24,228.56,54.78,227.99,56.15z"/>
					<path class="st1" d="M204.44,51.7c1.89,0.66,3.52,1.36,5.25,1.86c-1.86-0.96-3.82-1.72-5.76-2.29
						C204.03,51.55,204.1,51.65,204.44,51.7z"/>
					<path class="st1" d="M402.89,41.42c0.43,1.06,1.11,2.05,1.78,2.76C404.16,43.05,403.65,42.2,402.89,41.42z"/>
					<path class="st1" d="M427.7,41.38c0.41,1.06,1.08,2.06,1.75,2.77C428.96,43.02,428.45,42.16,427.7,41.38z"/>
					<path class="st1" d="M222.03,40.57c0.21-0.72,0.42-1.44,0.38-2.14c-0.77,0.05-1.29,0.08-1.81,0.38
						C221.07,39.59,221.55,40.08,222.03,40.57z"/>
					<path class="st1" d="M158.06,60.2c0.45,1.7,0.92,3.15,1.39,4.32C158.99,62.81,158.54,61.38,158.06,60.2z"/>
					<path class="st1" d="M360.15,77.97c-0.54,1.49-0.87,2.82-1,3.99C359.69,80.47,360.03,79.15,360.15,77.97z"/>
					<path class="st1" d="M179.69,41.63c-0.54,1.5-0.87,2.84-0.99,4.03C179.24,44.16,179.57,42.82,179.69,41.63z"/>
					<path class="st1" d="M74.56,41.4c0.54-1.41,0.85-2.71,0.97-3.86C75.01,38.96,74.66,40.24,74.56,41.4z"/>
					<path class="st1" d="M52.44,70.82c0.5,1.55,1.02,2.83,1.57,3.84C53.52,73.11,52.99,71.83,52.44,70.82z"/>
					<path class="st1" d="M151.91,43.9c-0.52,1.24-0.85,2.34-0.92,3.35C151.53,46.02,151.82,44.89,151.91,43.9z"/>
					<path class="st1" d="M51.04,67.88c0.48,1.08,0.96,1.9,1.46,2.44C52.02,69.24,51.53,68.43,51.04,67.88z"/>
					<path class="st1" d="M55.31,78.09c0.49,1.31,1.01,2.36,1.57,3.13C56.4,79.92,55.87,78.87,55.31,78.09z"/>
					<path class="st1" d="M239.53,68.69c0.46,1.29,0.94,2.32,1.44,3.09C240.52,70.49,240.04,69.46,239.53,68.69z"/>
					<path class="st1" d="M381.32,78.09c0.48,1.07,1,1.88,1.53,2.43C382.36,79.45,381.86,78.64,381.32,78.09z"/>
					<path class="st1" d="M182.56,35.73c-0.6,0.97-0.94,1.91-1.02,2.79C182.14,37.54,182.48,36.63,182.56,35.73z"/>
					<path class="st1" d="M430.95,52.54c0.21,1.33,0.43,2.43,0.65,3.27C431.37,54.47,431.17,53.39,430.95,52.54z"/>
					<path class="st1" d="M433.83,74.66c0.22,1.24,0.46,2.22,0.7,2.94C434.31,76.35,434.08,75.38,433.83,74.66z"/>
					<path class="st1" d="M404.64,44.65c0.26,1.08,0.52,1.89,0.78,2.43C405.16,46,404.9,45.19,404.64,44.65z"/>
					<path class="st1" d="M468.76,56.21c0.22,1.1,0.46,1.93,0.7,2.49C469.24,57.6,469.01,56.77,468.76,56.21z"/>
					<path class="st1" d="M470.21,65c0.22,1.07,0.46,1.88,0.71,2.42C470.69,66.35,470.46,65.54,470.21,65z"/>
					<path class="st1" d="M134.63,34.74c-0.44-1.32-0.92-2.38-1.43-3.18C133.64,32.89,134.12,33.95,134.63,34.74z"/>
					<path class="st1" d="M363.98,70.04c0.59-1.95,1.17-3.64,1.5-5.22c-0.88,1.94-1.51,3.77-1.99,5.59
						C363.66,70.39,363.97,70.29,363.98,70.04z"/>
					<path class="st1" d="M377.03,68.88c-0.49-1.07-0.99-1.87-1.56-2.41C375.94,67.54,376.48,68.34,377.03,68.88z"/>
					<path class="st1" d="M375.57,65.98c-0.49-1.06-0.99-1.87-1.56-2.41C374.48,64.64,375.02,65.43,375.57,65.98z"/>
					<path class="st1" d="M374.11,63.07c-0.49-1.07-0.99-1.87-1.56-2.41C373.02,61.73,373.56,62.53,374.11,63.07z"/>
					<path class="st1" d="M372.66,60.17c-0.49-1.07-0.99-1.87-1.56-2.41C371.56,58.82,372.11,59.62,372.66,60.17z"/>
					<path class="st1" d="M376.9,69.32c-0.04,0.52,0.01,0.82,0.26,1.16C377.23,70.04,377.11,69.58,376.9,69.32z"/>
				</g>
			</g>
		</g>
	</g>
</g>
</svg>
